PathFileType	4	(X/Y/Z)	 2.5Hzlow3min.trc
DataRate	CameraRate	NumFrames	NumMarkers	Units	OrigDataRate	OrigDataStartFrame	OrigNumFrames
200	200	7	39	m	200	1	1000
Frame#	Time	C7			LSH			RSH			MAN			RASI			LASI			HIPR			HIPL			RPSI			LPSI			COX			RTHI1			RTHI2			RTHI3			RTHI4			RLKN			RMKN			RSHA1			RSHA2			RSHA3			RSHA4			RHEEL			RMET5			RMET1			RTOE			LTHI1			LTHI2			LTHI3			LTHI4			LLKN			LMKN			LSHA1			LSHA2			LSHA3			LSHA4			LHEEL			LMET5			LMET1			LTOE			
		X1	Y1	Z1	X2	Y2	Z2	X3	Y3	Z3	X4	Y4	Z4	X5	Y5	Z5	X6	Y6	Z6	X7	Y7	Z7	X8	Y8	Z8	X9	Y9	Z9	X10	Y10	Z10	X11	Y11	Z11	X12	Y12	Z12	X13	Y13	Z13	X14	Y14	Z14	X15	Y15	Z15	X16	Y16	Z16	X17	Y17	Z17	X18	Y18	Z18	X19	Y19	Z19	X20	Y20	Z20	X21	Y21	Z21	X22	Y22	Z22	X23	Y23	Z23	X24	Y24	Z24	X25	Y25	Z25	X26	Y26	Z26	X27	Y27	Z27	X28	Y28	Z28	X29	Y29	Z29	X30	Y30	Z30	X31	Y31	Z31	X32	Y32	Z32	X33	Y33	Z33	X34	Y34	Z34	X35	Y35	Z35	X36	Y36	Z36	X37	Y37	Z37	X38	Y38	Z38	X39	Y39	Z39	
1	0.0050	-0.271240	1.476699	-0.524967	-0.231066	1.465360	-0.722935	-0.216610	1.456121	-0.339790	-0.120846	1.432377	-0.538168	-0.127092	0.958541	-0.431589	-0.145920	0.966437	-0.664426	-0.192013	1.032534	-0.372538	-0.201802	1.030761	-0.706969	-0.308658	1.024305	-0.494945	-0.316579	1.025656	-0.561781	-0.313078	1.023400	-0.530634	-0.200529	0.779732	-0.346492	-0.181595	0.723334	-0.341766	-0.119297	0.741408	-0.351102	-0.131976	0.800802	-0.358533	-0.144592	0.467442	-0.374016	-0.137369	0.456002	-0.485105	-0.244555	0.356701	-0.338780	-0.263201	0.319498	-0.348870	-0.205724	0.300099	-0.354932	-0.191599	0.337592	-0.348900	-0.379107	0.083257	-0.426246	-0.217227	0.033945	-0.358300	-0.162744	0.045713	-0.425599	-0.138767	0.036407	-0.423226	-0.223964	0.756713	-0.747167	-0.203144	0.698859	-0.754300	-0.140826	0.715389	-0.753997	-0.152750	0.774328	-0.746553	-0.169515	0.469029	-0.732455	-0.140701	0.457213	-0.632064	-0.280600	0.347437	-0.741429	-0.297280	0.311163	-0.733810	-0.238269	0.290295	-0.740274	-0.229163	0.332645	-0.747641	-0.386560	0.078378	-0.644642	-0.237238	0.035408	-0.742339	-0.175310	0.048223	-0.674945	-0.149737	0.037592	-0.683964	
2	0.0100	-0.271243	1.472628	-0.525293	-0.231182	1.460796	-0.723400	-0.216998	1.451897	-0.340217	-0.120024	1.427804	-0.538503	-0.127750	0.953991	-0.431593	-0.146863	0.961865	-0.664462	-0.192761	1.027017	-0.372143	-0.202990	1.025418	-0.707175	-0.309619	1.019543	-0.494618	-0.317000	1.020340	-0.561984	-0.313884	1.018647	-0.530421	-0.200600	0.775195	-0.346159	-0.181442	0.718914	-0.341376	-0.119202	0.737260	-0.350372	-0.132102	0.796614	-0.357735	-0.142617	0.463619	-0.373707	-0.134889	0.452277	-0.484644	-0.242335	0.352878	-0.338640	-0.261227	0.315714	-0.349149	-0.203895	0.296214	-0.355742	-0.189509	0.333632	-0.349394	-0.379694	0.080967	-0.427307	-0.217647	0.033868	-0.358341	-0.162986	0.045681	-0.425644	-0.138885	0.036073	-0.423064	-0.224464	0.752049	-0.747500	-0.203233	0.694403	-0.754963	-0.141059	0.711481	-0.755541	-0.153395	0.770301	-0.747888	-0.167033	0.465445	-0.733730	-0.136937	0.453452	-0.634020	-0.278033	0.344109	-0.741868	-0.294848	0.307908	-0.734044	-0.235774	0.286886	-0.740179	-0.226571	0.329185	-0.747795	-0.386755	0.076785	-0.642852	-0.237588	0.035428	-0.742025	-0.174960	0.048208	-0.674740	-0.149590	0.037570	-0.684331	
3	0.0150	-0.271081	1.468742	-0.525585	-0.231364	1.456571	-0.723851	-0.217434	1.448004	-0.340644	-0.119314	1.423573	-0.538846	-0.128441	0.949634	-0.431543	-0.147800	0.957456	-0.664531	-0.193741	1.021690	-0.371791	-0.204241	1.020158	-0.707299	-0.310539	1.014904	-0.494430	-0.317851	1.015437	-0.562008	-0.314900	1.013912	-0.530241	-0.200752	0.771169	-0.345733	-0.181375	0.714964	-0.340959	-0.119195	0.733596	-0.349615	-0.132310	0.792925	-0.356955	-0.140570	0.460126	-0.373497	-0.132387	0.449158	-0.484425	-0.240232	0.349430	-0.338701	-0.259334	0.312342	-0.349572	-0.202130	0.292773	-0.356571	-0.187532	0.330079	-0.349870	-0.380022	0.078957	-0.428670	-0.217975	0.033835	-0.358539	-0.163022	0.045586	-0.425677	-0.138847	0.035995	-0.422902	-0.225063	0.747653	-0.747744	-0.203437	0.690201	-0.755505	-0.141427	0.707867	-0.757122	-0.154159	0.766548	-0.749338	-0.164494	0.462136	-0.734868	-0.133113	0.450175	-0.635842	-0.275492	0.341229	-0.742076	-0.292469	0.305143	-0.734079	-0.233444	0.283861	-0.739952	-0.224059	0.326089	-0.747861	-0.386594	0.075260	-0.640909	-0.237900	0.035458	-0.741616	-0.174699	0.048137	-0.674758	-0.149314	0.037590	-0.684753	
4	0.0200	-0.270906	1.464957	-0.525873	-0.231542	1.452451	-0.724285	-0.217852	1.444214	-0.341067	-0.118647	1.419463	-0.539185	-0.129120	0.945386	-0.431477	-0.148729	0.953115	-0.664612	-0.194794	1.016462	-0.371464	-0.205532	1.014914	-0.707411	-0.311462	1.010376	-0.494285	-0.318710	1.010597	-0.562057	-0.315884	1.009272	-0.530094	-0.200918	0.767273	-0.345320	-0.181305	0.711148	-0.340553	-0.119203	0.730071	-0.348890	-0.132536	0.789367	-0.356200	-0.138496	0.456748	-0.373319	-0.129896	0.446184	-0.484248	-0.238196	0.346138	-0.338816	-0.257492	0.309132	-0.350029	-0.200410	0.289477	-0.357377	-0.185610	0.326671	-0.350360	-0.380289	0.077001	-0.430089	-0.218281	0.033841	-0.358759	-0.162998	0.045540	-0.425717	-0.138749	0.035850	-0.422706	-0.225680	0.743367	-0.747968	-0.203679	0.686108	-0.756016	-0.141837	0.704331	-0.758673	-0.154940	0.762886	-0.750767	-0.161955	0.458912	-0.735961	-0.129328	0.447031	-0.637617	-0.272999	0.338474	-0.742240	-0.290143	0.302503	-0.734061	-0.231172	0.280956	-0.739723	-0.221605	0.323109	-0.747903	-0.386371	0.073792	-0.638950	-0.238195	0.035493	-0.741186	-0.174401	0.048077	-0.674764	-0.149014	0.037602	-0.685162	
5	0.0250	-0.270660	1.461405	-0.526148	-0.231731	1.448633	-0.724686	-0.218262	1.440715	-0.341482	-0.118083	1.415675	-0.539521	-0.129789	0.941394	-0.431365	-0.149636	0.948948	-0.664731	-0.196031	1.011493	-0.371185	-0.206901	1.009751	-0.707467	-0.312359	1.006094	-0.494263	-0.319748	1.006081	-0.562061	-0.316902	1.004834	-0.530014	-0.201125	0.763771	-0.344882	-0.181266	0.707717	-0.340154	-0.119248	0.726944	-0.348193	-0.132810	0.786209	-0.355486	-0.136374	0.453674	-0.373225	-0.127411	0.443668	-0.484218	-0.236316	0.343219	-0.339097	-0.255776	0.306318	-0.350578	-0.198799	0.286566	-0.358153	-0.183826	0.323633	-0.350845	-0.380377	0.075254	-0.431700	-0.218527	0.033884	-0.359071	-0.162832	0.045497	-0.425764	-0.138550	0.035746	-0.422489	-0.226351	0.739360	-0.748100	-0.204018	0.682282	-0.756425	-0.142356	0.701036	-0.760184	-0.155797	0.759476	-0.752228	-0.159408	0.455945	-0.736930	-0.125593	0.444287	-0.639259	-0.270603	0.336076	-0.742242	-0.287924	0.300235	-0.733888	-0.229057	0.278380	-0.739436	-0.219279	0.320444	-0.747877	-0.385911	0.072400	-0.636928	-0.238449	0.035543	-0.740698	-0.174101	0.048005	-0.674852	-0.148632	0.037625	-0.685581	
6	0.0300	-0.270421	1.458171	-0.526425	-0.231916	1.445112	-0.725049	-0.218614	1.437507	-0.341892	-0.117628	1.412221	-0.539849	-0.130414	0.937738	-0.431221	-0.150496	0.944995	-0.664892	-0.197414	1.006881	-0.370956	-0.208357	1.004698	-0.707474	-0.313231	1.002172	-0.494348	-0.320789	1.001839	-0.562116	-0.317832	1.000726	-0.530038	-0.201358	0.760638	-0.344485	-0.181228	0.704662	-0.339794	-0.119301	0.724203	-0.347586	-0.133111	0.783425	-0.354850	-0.134222	0.450927	-0.373214	-0.124961	0.441520	-0.484269	-0.234644	0.340729	-0.339519	-0.254226	0.303961	-0.351177	-0.197337	0.284043	-0.358854	-0.182232	0.320991	-0.351361	-0.380329	0.073695	-0.433438	-0.218733	0.033955	-0.359439	-0.162562	0.045460	-0.425799	-0.138223	0.035811	-0.422319	-0.227055	0.735670	-0.748162	-0.204442	0.678758	-0.756742	-0.142958	0.697969	-0.761585	-0.156698	0.756328	-0.753627	-0.156905	0.453220	-0.737773	-0.121997	0.441917	-0.640766	-0.268381	0.333986	-0.742131	-0.285865	0.298288	-0.733596	-0.227127	0.276111	-0.739125	-0.217149	0.318080	-0.747785	-0.385352	0.071162	-0.634914	-0.238664	0.035614	-0.740176	-0.173727	0.047969	-0.674915	-0.148191	0.037648	-0.685974	
7	0.0350	-0.270178	1.455274	-0.526691	-0.232077	1.441955	-0.725374	-0.218903	1.434655	-0.342283	-0.117275	1.409147	-0.540166	-0.130983	0.934483	-0.431048	-0.151296	0.941317	-0.665104	-0.198899	1.002754	-0.370770	-0.209881	0.999859	-0.707432	-0.314025	0.998715	-0.494561	-0.321791	0.998048	-0.562222	-0.318658	0.997068	-0.530160	-0.201590	0.757911	-0.344144	-0.181175	0.702012	-0.339493	-0.119350	0.721874	-0.347074	-0.133425	0.781044	-0.354304	-0.132122	0.448532	-0.373277	-0.122566	0.439739	-0.484364	-0.233233	0.338667	-0.340074	-0.252909	0.302044	-0.351895	-0.196099	0.281916	-0.359504	-0.180870	0.318757	-0.351876	-0.380177	0.072344	-0.435255	-0.218932	0.034051	-0.359846	-0.162236	0.045436	-0.425825	-0.137887	0.035715	-0.422070	-0.227766	0.732343	-0.748133	-0.204935	0.675575	-0.756946	-0.143633	0.695163	-0.762854	-0.157620	0.753479	-0.754944	-0.154496	0.450783	-0.738473	-0.118618	0.439952	-0.642097	-0.266398	0.332208	-0.741904	-0.284035	0.296648	-0.733180	-0.225423	0.274158	-0.738808	-0.215268	0.316030	-0.747644	-0.384686	0.070047	-0.632995	-0.238836	0.035698	-0.739647	-0.173332	0.047942	-0.674976	-0.147738	0.037660	-0.686322	
